<svg width="29" height="30" viewBox="0 0 29 30" fill="none" xmlns="http://www.w3.org/2000/svg">
<g clip-path="url(#clip0_773_482)">
<path d="M20.5417 4.12498H25.3751C25.6956 4.12498 26.0029 4.25229 26.2295 4.47889C26.4561 4.7055 26.5834 5.01284 26.5834 5.33331V24.6666C26.5834 24.9871 26.4561 25.2945 26.2295 25.5211C26.0029 25.7477 25.6956 25.875 25.3751 25.875H3.62508C3.30461 25.875 2.99727 25.7477 2.77066 25.5211C2.54405 25.2945 2.41675 24.9871 2.41675 24.6666V5.33331C2.41675 5.01284 2.54405 4.7055 2.77066 4.47889C2.99727 4.25229 3.30461 4.12498 3.62508 4.12498H8.45842V1.70831H10.8751V4.12498H18.1251V1.70831H20.5417V4.12498ZM24.1667 13.7916H4.83341V23.4583H24.1667V13.7916ZM18.1251 6.54165H10.8751V8.95831H8.45842V6.54165H4.83341V11.375H24.1667V6.54165H20.5417V8.95831H18.1251V6.54165ZM7.25008 16.2083H9.66675V18.625H7.25008V16.2083ZM13.2917 16.2083H15.7084V18.625H13.2917V16.2083ZM19.3334 16.2083H21.7501V18.625H19.3334V16.2083Z" fill="white"/>
</g>
<defs>
<clipPath id="clip0_773_482">
<rect width="29" height="29" fill="white" transform="translate(0 0.5)"/>
</clipPath>
</defs>
</svg>
