<svg width="38" height="37" viewBox="0 0 38 37" fill="none" xmlns="http://www.w3.org/2000/svg">
<g clip-path="url(#clip0_789_73)">
<g clip-path="url(#clip1_789_73)">
<path d="M33.5026 4.87952H3.13435C1.86644 4.87952 0.834839 5.91112 0.834839 7.17903V28.2032C0.834839 29.4712 1.86644 30.5027 3.13435 30.5027H33.5026C34.7706 30.5027 35.8022 29.4711 35.8022 28.2032V7.17903C35.8022 5.91112 34.7706 4.87952 33.5026 4.87952ZM9.01091 29.4077H3.13435C2.47018 29.4077 1.92982 28.8674 1.92982 28.2032V7.17903C1.92982 6.51485 2.47018 5.9745 3.13435 5.9745H9.01091V29.4077ZM34.7072 28.2033C34.7072 28.8674 34.1668 29.4078 33.5026 29.4078H10.106V5.97457H33.5026C34.1668 5.97457 34.7072 6.51492 34.7072 7.1791V28.2033Z" fill="#101928"/>
<path d="M14.2304 7.21555H11.8943C11.592 7.21555 11.3468 7.46066 11.3468 7.76307C11.3468 8.06548 11.5919 8.3106 11.8943 8.3106H14.2304C14.5327 8.3106 14.7779 8.06548 14.7779 7.76307C14.7779 7.46066 14.5327 7.21555 14.2304 7.21555Z" fill="#101928"/>
<path d="M7.22222 7.21555H3.71818C3.41584 7.21555 3.17065 7.46066 3.17065 7.76307C3.17065 8.06548 3.41577 8.3106 3.71818 8.3106H7.22222C7.52456 8.3106 7.76974 8.06548 7.76974 7.76307C7.76974 7.46066 7.52463 7.21555 7.22222 7.21555Z" fill="#101928"/>
<path d="M7.22222 13.0556H3.71818C3.41584 13.0556 3.17065 13.3007 3.17065 13.6031C3.17065 13.9056 3.41577 14.1507 3.71818 14.1507H7.22222C7.52456 14.1507 7.76974 13.9056 7.76974 13.6031C7.76974 13.3007 7.52463 13.0556 7.22222 13.0556Z" fill="#101928"/>
<path d="M7.22222 17.7277H3.71818C3.41584 17.7277 3.17065 17.9728 3.17065 18.2752C3.17065 18.5776 3.41577 18.8227 3.71818 18.8227H7.22222C7.52456 18.8227 7.76974 18.5776 7.76974 18.2752C7.76974 17.9728 7.52463 17.7277 7.22222 17.7277Z" fill="#101928"/>
<path d="M7.22222 22.3992H3.71818C3.41584 22.3992 3.17065 22.6443 3.17065 22.9467C3.17065 23.2491 3.41577 23.4943 3.71818 23.4943H7.22222C7.52456 23.4943 7.76974 23.2491 7.76974 22.9467C7.76974 22.6443 7.52463 22.3992 7.22222 22.3992Z" fill="#101928"/>
<path d="M7.22222 15.3914H3.71818C3.41584 15.3914 3.17065 15.6365 3.17065 15.9389C3.17065 16.2413 3.41577 16.4864 3.71818 16.4864H7.22222C7.52456 16.4864 7.76974 16.2413 7.76974 15.9389C7.76974 15.6365 7.52463 15.3914 7.22222 15.3914Z" fill="#101928"/>
<path d="M7.22222 20.064H3.71818C3.41584 20.064 3.17065 20.3091 3.17065 20.6115C3.17065 20.9139 3.41577 21.159 3.71818 21.159H7.22222C7.52456 21.159 7.76974 20.9139 7.76974 20.6115C7.76974 20.3091 7.52463 20.064 7.22222 20.064Z" fill="#101928"/>
<path d="M6.05423 25.9038H3.71818C3.41584 25.9038 3.17065 26.1489 3.17065 26.4513C3.17065 26.7537 3.41577 26.9988 3.71818 26.9988H6.05423C6.35657 26.9988 6.60175 26.7537 6.60175 26.4513C6.60175 26.1489 6.35657 25.9038 6.05423 25.9038Z" fill="#101928"/>
<path d="M6.05423 9.55157H3.71818C3.41584 9.55157 3.17065 9.79669 3.17065 10.0991C3.17065 10.4015 3.41577 10.6466 3.71818 10.6466H6.05423C6.35657 10.6466 6.60175 10.4015 6.60175 10.0991C6.60175 9.79669 6.35657 9.55157 6.05423 9.55157Z" fill="#101928"/>
<path d="M18.9024 7.21555H16.5663C16.264 7.21555 16.0188 7.46066 16.0188 7.76307C16.0188 8.06548 16.2639 8.3106 16.5663 8.3106H18.9024C19.2047 8.3106 19.4499 8.06548 19.4499 7.76307C19.4499 7.46066 19.2048 7.21555 18.9024 7.21555Z" fill="#101928"/>
<path d="M23.5744 7.21555H21.2383C20.936 7.21555 20.6908 7.46066 20.6908 7.76307C20.6908 8.06548 20.9359 8.3106 21.2383 8.3106H23.5744C23.8767 8.3106 24.1219 8.06548 24.1219 7.76307C24.1219 7.46066 23.8768 7.21555 23.5744 7.21555Z" fill="#101928"/>
<path d="M28.2462 7.21555H25.9102C25.6079 7.21555 25.3627 7.46066 25.3627 7.76307C25.3627 8.06548 25.6078 8.3106 25.9102 8.3106H28.2462C28.5486 8.3106 28.7938 8.06548 28.7938 7.76307C28.7938 7.46066 28.5486 7.21555 28.2462 7.21555Z" fill="#101928"/>
<path d="M32.9185 7.21555H30.5824C30.2801 7.21555 30.0349 7.46066 30.0349 7.76307C30.0349 8.06548 30.28 8.3106 30.5824 8.3106H32.9185C33.2208 8.3106 33.466 8.06548 33.466 7.76307C33.466 7.46066 33.2208 7.21555 32.9185 7.21555Z" fill="#101928"/>
<path d="M18.0634 19.5896C17.8216 19.408 17.4784 19.4568 17.2968 19.6986C16.8436 20.3018 16.1517 20.6478 15.3984 20.6478C14.0902 20.6478 13.0258 19.5835 13.0258 18.2753C13.0258 16.9671 14.0902 15.9028 15.3984 15.9028C16.1522 15.9028 16.8446 16.2492 17.2977 16.8532C17.4791 17.0951 17.8223 17.1442 18.0641 16.9626C18.306 16.7811 18.3549 16.438 18.1735 16.1962C17.5116 15.3138 16.5001 14.8078 15.3983 14.8078C13.4864 14.8078 11.9308 16.3633 11.9308 18.2753C11.9308 20.1872 13.4864 21.7428 15.3983 21.7428C16.4992 21.7428 17.5103 21.2374 18.1722 20.3562C18.354 20.1144 18.3052 19.7712 18.0634 19.5896Z" fill="#101928"/>
<path d="M23.4642 19.357C24.5055 19.1378 25.2898 18.2123 25.2898 17.1068C25.2898 15.8388 24.2582 14.8072 22.9903 14.8072H20.0702C19.7679 14.8072 19.5227 15.0524 19.5227 15.3548V21.1948C19.5227 21.4971 19.7678 21.7423 20.0702 21.7423C20.3726 21.7423 20.6178 21.4972 20.6178 21.1948V19.4063H22.1326L23.7203 21.5233C23.8279 21.6667 23.9923 21.7423 24.1587 21.7423C24.2731 21.7423 24.3884 21.7066 24.4868 21.6328C24.7287 21.4514 24.7778 21.1082 24.5963 20.8664L23.4642 19.357ZM20.6177 18.3114V15.9024H22.9902C23.6544 15.9024 24.1947 16.4427 24.1947 17.1069C24.1947 17.7711 23.6544 18.3114 22.9902 18.3114H20.6177V18.3114Z" fill="#101928"/>
<path d="M32.8792 21.1403L32.2952 15.3003C32.2701 15.0493 32.0768 14.848 31.827 14.8127C31.5776 14.7773 31.3357 14.9172 31.2421 15.1515L29.4144 19.7207L27.5866 15.1515C27.4929 14.9173 27.2514 14.7776 27.0017 14.8127C26.7519 14.848 26.5587 15.0493 26.5335 15.3003L25.9495 21.1403C25.9195 21.4412 26.139 21.7095 26.4399 21.7396C26.7405 21.7697 27.009 21.5502 27.0392 21.2493L27.4007 17.6346L28.9061 21.3981C28.9893 21.606 29.1905 21.7423 29.4144 21.7423C29.6384 21.7423 29.8396 21.606 29.9228 21.3981L31.4282 17.6346L31.7897 21.2493C31.818 21.5316 32.0559 21.7423 32.3339 21.7423C32.3521 21.7423 32.3705 21.7414 32.389 21.7395C32.6898 21.7095 32.9093 21.4412 32.8792 21.1403Z" fill="#101928"/>
</g>
</g>
<defs>
<clipPath id="clip0_789_73">
<rect width="36.4876" height="36.4876" fill="white" transform="translate(0.834717 0.207458)"/>
</clipPath>
<clipPath id="clip1_789_73">
<rect width="34.9673" height="34.9673" fill="white" transform="translate(0.834717 0.207458)"/>
</clipPath>
</defs>
</svg>
