<svg width="36" height="36" viewBox="0 0 36 36" fill="none" xmlns="http://www.w3.org/2000/svg">
<g clip-path="url(#clip0_789_37)">
<g clip-path="url(#clip1_789_37)">
<path d="M22.1919 22.6418L21.9601 22.5894L21.7631 22.7213C19.242 24.4118 15.9958 24.4118 13.4748 22.7213L13.2778 22.5894L13.0465 22.6418C6.95065 24.0188 2.85559 27.9516 2.85559 32.4286V32.9805H32.3821V32.4286C32.3821 27.9516 28.2871 24.0188 22.1919 22.6418ZM3.98374 31.8766C4.30987 28.2093 7.8669 25.0121 13.0636 23.771C15.849 25.5337 19.3872 25.5343 22.1743 23.771C27.3704 25.0121 30.9274 28.2094 31.2541 31.8766H3.98374Z" fill="#101928"/>
<path d="M12.8599 21.4314C14.3026 22.3983 15.9484 22.9099 17.6189 22.9099C19.2894 22.9099 20.9347 22.3983 22.3773 21.4314C22.4988 21.3503 22.6152 21.2619 22.7322 21.1747H26.7848V13.957C26.8362 13.5155 26.8637 13.0662 26.8637 12.6203C26.8637 6.94689 22.7168 2.33081 17.6195 2.33081C12.9929 2.33081 9.139 6.06718 8.47564 11.1026H8.37463V12.6204V21.1747H12.5056C12.6226 21.262 12.739 21.3503 12.8599 21.4314ZM25.6805 20.071H23.9812C24.0723 19.9744 24.1566 19.8718 24.2444 19.7713C24.2941 19.7139 24.3454 19.6599 24.3934 19.6013C24.5877 19.369 24.7726 19.1289 24.9453 18.8777C24.9762 18.8331 25.0038 18.7856 25.0342 18.7403C25.1755 18.5289 25.3086 18.3126 25.4349 18.0902C25.4801 18.0107 25.5238 17.9318 25.5668 17.8511C25.6038 17.7816 25.6457 17.7137 25.681 17.6436L25.6805 20.071ZM17.6189 3.43463C21.6483 3.43463 24.9944 6.75867 25.6386 11.1027H9.59768C10.2434 6.69244 13.5972 3.43463 17.6189 3.43463ZM9.47845 12.2064H25.7412C25.7468 12.3444 25.7595 12.4808 25.7595 12.6204C25.7595 13.0359 25.7341 13.4554 25.6844 13.8671C25.6462 14.1855 25.5927 14.5001 25.5249 14.8097C25.3218 15.7385 24.9901 16.6227 24.5464 17.4312C23.9553 18.5091 23.1645 19.4523 22.2158 20.1869L22.2031 20.1973C22.0596 20.3077 21.9133 20.4148 21.7632 20.5147C19.2421 22.2057 15.9958 22.2052 13.4748 20.5147C13.3203 20.4109 13.1696 20.3017 13.0217 20.1869C10.8031 18.4688 9.47855 15.6404 9.47855 12.6209C9.47845 12.6209 9.47845 12.2064 9.47845 12.2064ZM9.47845 20.071V17.4831C9.49723 17.5212 9.51934 17.5577 9.53802 17.5957C9.62025 17.7607 9.70691 17.9235 9.79737 18.0836C9.83326 18.147 9.8697 18.2099 9.90661 18.2729C10.0043 18.4374 10.1058 18.5985 10.2118 18.7564C10.2388 18.7973 10.2648 18.8386 10.2924 18.8795C10.4276 19.0748 10.5689 19.2642 10.7169 19.4491C10.75 19.4905 10.7853 19.5296 10.819 19.5711C10.9371 19.714 11.0591 19.8536 11.1849 19.9894C11.2097 20.0164 11.2318 20.0457 11.2566 20.0716L9.47845 20.071Z" fill="#101928"/>
</g>
</g>
<defs>
<clipPath id="clip0_789_37">
<rect width="35.0281" height="35.0281" fill="white" transform="translate(0.834717 0.871368)"/>
</clipPath>
<clipPath id="clip1_789_37">
<rect width="30.6496" height="30.6496" fill="white" transform="translate(2.29419 2.33099)"/>
</clipPath>
</defs>
</svg>
