<svg width="36" height="36" viewBox="0 0 36 36" fill="none" xmlns="http://www.w3.org/2000/svg">
<g clip-path="url(#clip0_789_134)">
<path d="M30.7545 3.48397L29.0097 4.74936C29.0097 4.74936 26.8336 6.36613 23.7084 7.96538C20.5811 9.56354 16.5112 11.1124 12.9329 11.1124H2.29419V21.1009L2.32812 21.2717L4.51738 28.9341L4.7571 29.7211H11.3938L11.0173 28.3189L9.23852 22.0587H12.9329C16.4642 22.0587 20.5351 23.6361 23.6734 25.2397C26.8117 26.8434 29.0097 28.4218 29.0097 28.4218L30.7545 29.6861V19.6626C32.0199 19.2061 32.9438 17.9998 32.9438 16.5845C32.9438 15.1691 32.0199 13.9629 30.7545 13.5053V3.48397ZM28.5653 7.5549V25.5823C27.6589 24.9704 26.9409 24.4144 24.6651 23.2563C21.4502 21.6143 17.2983 19.9505 13.2405 19.8695V13.3017C17.3366 13.2207 21.494 11.5229 24.7002 9.88098C26.9704 8.71739 27.6666 8.16679 28.5653 7.5549ZM4.48345 13.3017H11.0512V19.8695H4.48345V13.3017ZM4.86 22.0587H6.94636L8.48541 27.5319H6.39905L4.86 22.0587Z" fill="#101928"/>
</g>
<defs>
<clipPath id="clip0_789_134">
<rect width="35.0281" height="35.0281" fill="white" transform="translate(0.834717 0.565193)"/>
</clipPath>
</defs>
</svg>
