<svg width="26" height="28" viewBox="0 0 26 28" fill="none" xmlns="http://www.w3.org/2000/svg">
<mask id="mask0_789_56" style="mask-type:alpha" maskUnits="userSpaceOnUse" x="0" y="-1" width="26" height="30">
<path d="M16.2713 1.24295H9.88594C8.82798 1.24295 7.97034 2.10059 7.97034 3.15855V5.71269C7.97034 6.77064 8.82798 7.62829 9.88594 7.62829H16.2713C17.3292 7.62829 18.1869 6.77064 18.1869 5.71269V3.15855C18.1869 2.10059 17.3292 1.24295 16.2713 1.24295Z" fill="white" stroke="white" stroke-width="2.55413" stroke-linecap="round" stroke-linejoin="round"/>
<path d="M16.9096 11.4592H9.24724C5.01541 11.4592 1.58484 14.8898 1.58484 19.1216C1.58484 23.3535 5.01541 26.784 9.24724 26.784H16.9096C21.1415 26.784 24.5721 23.3535 24.5721 19.1216C24.5721 14.8898 21.1415 11.4592 16.9096 11.4592Z" stroke="white" stroke-width="2.55413" stroke-linecap="round" stroke-linejoin="round"/>
<path d="M1.58484 19.7601C3.52726 17.2909 9.24724 17.8445 13.0784 19.1216C16.9096 20.3986 22.0179 22.3142 24.5721 19.1216" stroke="white" stroke-width="2.55413" stroke-linecap="round" stroke-linejoin="round"/>
<path d="M13.7169 4.43529C13.7169 4.60464 13.6496 4.76705 13.5299 4.8868C13.4101 5.00655 13.2477 5.07382 13.0784 5.07382C12.909 5.07382 12.7466 5.00655 12.6268 4.8868C12.5071 4.76705 12.4398 4.60464 12.4398 4.43529C12.4398 4.26594 12.5071 4.10352 12.6268 3.98378C12.7466 3.86403 12.909 3.79675 13.0784 3.79675C13.2477 3.79675 13.4101 3.86403 13.5299 3.98378C13.6496 4.10352 13.7169 4.26594 13.7169 4.43529Z" fill="black"/>
</mask>
<g mask="url(#mask0_789_56)">
<path d="M0 0H26V28H0V0Z" fill="#101928"/>
</g>
</svg>
